<svg xmlns="http://www.w3.org/2000/svg" xmlns:xlink="http://www.w3.org/1999/xlink" version="1.1" x="0px" y="0px" viewBox="0 0 100 125" enable-background="new 0 0 100 100" xml:space="preserve"><path fill="#000000" d="M95.73,2.6H63.93c-0.47,0-0.89,0.27-1.09,0.69c-0.189,0.42-0.13,0.92,0.17,1.28l6.971,8.31l-0.24,0.29  L3.82,39.69c-0.45,0.18-0.75,0.63-0.75,1.12v0.2V59.2v0.21c0,0.66,0.54,1.2,1.2,1.2h39.52L3.82,76.69  C3.66,76.76,3.53,76.85,3.41,76.97c-0.05,0.05-0.09,0.11-0.13,0.17c-0.04,0.051-0.07,0.101-0.09,0.15  c-0.02,0.04-0.04,0.09-0.06,0.14c-0.04,0.12-0.06,0.25-0.06,0.38V96.2c0,0.1,0.01,0.2,0.04,0.29c0.02,0.09,0.05,0.16,0.09,0.24  c0.02,0.05,0.04,0.09,0.08,0.13c0.07,0.13,0.19,0.25,0.32,0.34c0.2,0.13,0.44,0.2,0.67,0.2h32.2c0.46,0,0.89-0.261,1.08-0.681  c0.2-0.42,0.14-0.92-0.15-1.27l-6.93-8.49l65.65-26.42l0.06-0.021c0.04-0.02,0.08-0.039,0.12-0.06c0.04-0.02,0.07-0.04,0.101-0.06  c0.06-0.03,0.109-0.08,0.159-0.12c0.101-0.101,0.19-0.221,0.25-0.351c0.021-0.04,0.04-0.09,0.061-0.14  c0.04-0.12,0.06-0.25,0.06-0.38v-18.4c0-0.1-0.01-0.2-0.04-0.29c-0.02-0.09-0.05-0.17-0.09-0.25c-0.05-0.1-0.109-0.18-0.18-0.26  c-0.061-0.07-0.14-0.13-0.22-0.19c-0.051-0.04-0.101-0.07-0.16-0.09c-0.04-0.02-0.09-0.04-0.13-0.06c-0.13-0.04-0.25-0.06-0.38-0.06  H55.69L96.18,23.52c0.45-0.18,0.75-0.62,0.75-1.11v-0.22V4.01V3.8C96.93,3.13,96.39,2.6,95.73,2.6z M63.93,3.8h29.11l-21.76,8.76  L63.93,3.8z M36.47,96.2H7.5l21.81-8.771L36.47,96.2z M95.73,59.41L4.27,96.2V77.81l91.46-36.8V59.41z M92.52,41.01l-45.74,18.4  H6.98l45.73-18.4H92.52z M95.73,22.41L4.27,59.2V40.81l91.46-36.8V22.41z"/><text x="0" y="115" fill="#000000" font-size="5px" font-weight="bold" font-family="'Helvetica Neue', Helvetica, Arial-Unicode, Arial, Sans-serif">Created by Karen Tyler</text><text x="0" y="120" fill="#000000" font-size="5px" font-weight="bold" font-family="'Helvetica Neue', Helvetica, Arial-Unicode, Arial, Sans-serif">from the Noun Project</text></svg>