<svg xmlns="http://www.w3.org/2000/svg" xmlns:xlink="http://www.w3.org/1999/xlink" version="1.1" x="0px" y="0px" viewBox="0 0 100 125" enable-background="new 0 0 100 100" xml:space="preserve"><g><polygon fill="#000000" points="53.74,40.59 6.87,59.449 46.71,59.449 93.58,40.59  "/><polygon fill="#000000" points="94.12,2.83 64.69,2.83 72.11,11.689  "/><polygon fill="#000000" points="6.42,97.17 37.41,97.17 29.76,87.779  "/><polygon fill="#000000" points="47.96,60.27 3.13,78.31 3.13,97.17 31.01,85.949 94.83,60.27 96.87,59.449 96.87,40.59 50,59.449     "/><polygon fill="#000000" points="71.61,13.21 70.03,13.85 5.62,39.77 3.58,40.59 3.13,40.59 3.13,40.77 3.13,59.449 3.13,59.63    3.58,59.449 50.45,40.59 52.49,39.77 95.38,22.51 96.87,21.91 96.87,21.689 96.87,3.05  "/></g><text x="0" y="115" fill="#000000" font-size="5px" font-weight="bold" font-family="'Helvetica Neue', Helvetica, Arial-Unicode, Arial, Sans-serif">Created by Karen Tyler</text><text x="0" y="120" fill="#000000" font-size="5px" font-weight="bold" font-family="'Helvetica Neue', Helvetica, Arial-Unicode, Arial, Sans-serif">from the Noun Project</text></svg>