<svg xmlns="http://www.w3.org/2000/svg" xmlns:xlink="http://www.w3.org/1999/xlink" version="1.0" x="0px" y="0px" viewBox="0 0 100 125" enable-background="new 0 0 100 100" xml:space="preserve"><path d="M76.6401062,48.8977814l-0.3104095-20.9525642l-15.8308258-1.7848473c0.2328072,0,6.208168-2.4832668,6.208168-2.4832668  l-6.4409752-5.5097485L70.9751511,5.4406114L37.9942665,20.4954166l-0.0776024,14.7443981l10.0106697,4.0353088  l-21.8061886,9.7002602V69.927948l19.7885342,3.9577103l-10.2434769,4.423317l8.2258224,4.8889313l-5.7425575,11.5627136  l33.679306-14.5115967V64.0301895l-19.7885284-4.5785217L76.6401062,48.8977814z M39.4482422,21.3156013l25.1106415-10.7780895  l-5.8475876,7.6822567l4.9303093,5.1597137L39.4482422,33.813591V21.3156013z M29.1862011,49.8660545l44.6602249-19.9509258  v18.3456745L29.1862011,67.7530823C29.1862011,67.7530823,29.53018,49.8660545,29.1862011,49.8660545z M69.6900177,79.0184784  L41.598217,91.2871475l4.7009888-9.0581741l-5.8475914-4.0131149L69.6900177,66.176506  C69.8046036,66.0618439,69.6900177,79.0184784,69.6900177,79.0184784z"/><text x="0" y="115" fill="#000000" font-size="5px" font-weight="bold" font-family="'Helvetica Neue', Helvetica, Arial-Unicode, Arial, Sans-serif">Created by Alex Tai</text><text x="0" y="120" fill="#000000" font-size="5px" font-weight="bold" font-family="'Helvetica Neue', Helvetica, Arial-Unicode, Arial, Sans-serif">from the Noun Project</text></svg>