<?xml version="1.0" encoding="utf-8"?>
<!-- Generator: Adobe Illustrator 21.0.2, SVG Export Plug-In . SVG Version: 6.00 Build 0)  -->
<svg version="1.1" id="Layer_1" xmlns="http://www.w3.org/2000/svg" xmlns:xlink="http://www.w3.org/1999/xlink" x="0px" y="0px"
	 viewBox="0 0 100 125" style="enable-background:new 0 0 100 125;" xml:space="preserve">
<path d="M75.3,57.8L75,37.9L59.1,35c0.2,0,6.2-2.5,6.2-2.5l-6.4-5.5l10.7-12.7l-33,15.1l-0.1,14.7l12.7,2.8L24.7,57.9v21l19.8,4
	l-10.2,4.4l8.2,4.9l-5.7,11.6l33.7-14.5V72.9L50,68.6L75.3,57.8z M38.5,30.6l24.7-11.2l-5.8,7.7l4.9,5.2L38.5,42.5L38.5,30.6z
	 M27.8,58.8l44.7-20v18.3L27.8,76.6C27.8,76.6,28.1,58.8,27.8,58.8z M68.3,87.9l-28.1,12.3l4.7-9.1l-5.8-4l29.2-12
	C68.4,74.9,68.3,87.9,68.3,87.9z"/>
</svg>
